<?xml version="1.0" encoding="utf-8"?>
<svg id="Layer_1" xmlns="http://www.w3.org/2000/svg" viewBox="-35.255 -34.767 167.61 168.14" xmlns:bx="https://boxy-svg.com">
  <defs>
    <style>.cls-1{fill:#144475;}.cls-2{fill:none;}.cls-3{fill:#428fcb;}</style>
    <bx:grid x="0" y="0" width="58.364" height="58.272"/>
  </defs>
  <ellipse style="stroke: rgb(0, 0, 0); fill: rgb(255, 255, 255);" cx="48.55" cy="49.303" rx="83.805" ry="84.07"/>
  <path class="cls-2" d="M 10.106 81.877 C 28.373 88.111 93.928 110.156 107.811 110.156 C 110.729 110.156 113.596 109.706 116.334 108.883 L 116.334 54.87 C 113.596 54.047 110.729 53.597 107.811 53.597 C 93.928 53.597 28.373 75.642 10.106 81.877 Z" style=""/>
  <path class="cls-2" d="M 107.811 53.597 C 93.928 53.597 28.373 75.642 10.106 81.877 C 28.373 88.111 93.928 110.156 107.811 110.156 C 110.729 110.156 113.596 109.706 116.334 108.883 L 116.334 54.87 C 113.596 54.047 110.729 53.597 107.811 53.597 Z" style=""/>
  <path class="cls-3" d="M 48.503 -34.243 C 11.053 -34.243 -20.656 -9.655 -31.304 24.25 C -30.957 24.285 -30.643 24.356 -30.296 24.391 C -20.41 -0.196 3.643 -17.551 31.766 -17.551 C 68.726 -17.551 98.693 12.392 98.693 49.325 C 98.693 86.257 68.726 116.198 31.766 116.198 C 3.643 116.198 -20.41 98.847 -30.296 74.259 C -30.643 74.328 -30.957 74.364 -31.304 74.399 C -20.656 108.304 11.053 132.892 48.503 132.892 C 94.692 132.892 132.144 95.473 132.144 49.325 C 132.144 3.177 94.692 -34.243 48.503 -34.243 Z" style="stroke-width: 3px;"/>
  <path class="cls-1" d="M -1.584 -2.715 L 13.702 -2.672 C 16.183 -2.672 18.183 -0.651 18.183 1.846 L 17.905 97.373 C 17.905 99.851 15.883 101.858 13.391 101.858 L -1.897 101.813 L -1.584 -2.7 L -1.584 -2.715 Z" style="stroke-width: 1; transform-box: fill-box; transform-origin: 50% 50%;" transform="matrix(-1, 0, 0, -1, 0, 0.000001)"/>
  <path class="cls-1" d="M 57.286 -2.512 L 33.975 -2.512 C 45.409 11.786 52.272 29.892 52.272 49.628 C 52.272 69.349 45.422 87.474 33.975 101.756 L 57.286 101.756 C 66.309 86.473 71.51 68.657 71.51 49.628 C 71.51 30.588 66.316 12.773 57.286 -2.512 Z" style="stroke-width: 1;"/>
  <path class="cls-1" d="M 30.356 67.821 L 35.797 67.803 C 36.68 67.803 37.392 67.086 37.392 66.201 L 37.293 32.202 C 37.293 31.321 36.578 30.604 35.684 30.604 L 30.251 30.623 L 30.356 67.818 L 30.356 67.821 Z" style="stroke-width: 1; transform-box: fill-box; transform-origin: 50% 50%;" transform="matrix(0, 1, -1, 0, -0.000004, 0)"/>
</svg>